<svg width="136" height="60" viewBox="0 0 136 60" fill="none" xmlns="http://www.w3.org/2000/svg">
<path d="M120.654 34.1206C115.36 34.1206 111.602 38.0311 111.602 43.6284C111.602 49.2256 115.127 52.8677 120.765 52.8677C125.481 52.8677 128.125 50.714 129.391 47.8015L125.253 46.3482C124.681 47.8774 123.526 49.1439 120.841 49.1439C118.156 49.1439 116.58 47.6906 116.277 45.0758H129.391V43.4708C129.391 37.7626 126.135 34.1147 120.648 34.1147M116.201 41.784C116.545 39.2568 118.238 37.7976 120.532 37.7976C122.983 37.7976 124.407 39.1342 124.594 41.784H116.201Z" fill="#061D23"/>
<path d="M135.619 27.4319H130.821V52.4066H135.619V27.4319Z" fill="#061D23"/>
<path d="M105.853 35.3755C104.446 34.57 102.771 34.1206 100.915 34.1206C95.4697 34.1206 91.7109 37.9552 91.7109 43.4766C91.7109 48.998 95.5456 52.9085 101.032 52.9085C102.818 52.9085 104.429 52.4883 105.789 51.7237C105.637 52.9319 105.182 53.9475 104.423 54.7646C103.472 55.786 102.24 56.1187 100.746 56.1187H100.717V60H100.746C102.631 60 104.289 59.6148 105.73 58.8443C107.166 58.0739 108.298 56.9883 109.098 55.5817C109.845 54.2685 110.265 52.7685 110.306 51.07V34.1206H105.853V35.3755ZM101.049 37.9903C103.845 37.9903 105.573 40.0097 105.573 43.3541C105.573 47.0019 103.909 49.0331 101.049 49.0331C98.1895 49.0331 96.5261 47.0019 96.5261 43.3541C96.5261 40.0097 98.2479 37.9903 101.049 37.9903Z" fill="#061D23"/>
<path d="M65.9598 35.3696C64.5824 34.5525 62.954 34.1206 61.1388 34.1206C55.81 34.1206 52.1797 37.8793 52.1797 43.2665C52.1797 48.6537 55.8742 52.4124 61.2672 52.4124C62.9598 52.4124 64.524 52.033 65.8373 51.2217C65.8781 51.1984 65.919 51.1692 65.9598 51.1517V52.4124H70.2847V34.1147H65.9598V35.3754V35.3696ZM65.5805 43.2665C65.5805 46.6517 63.8879 48.6537 61.2556 48.6537C58.6233 48.6537 56.8665 46.6459 56.8665 43.2665V43.1381C56.8665 39.8171 58.4307 37.8735 61.1272 37.8735C63.8237 37.8735 65.5746 39.8171 65.5746 43.1381V43.2665H65.5805Z" fill="#061D23"/>
<path d="M81.2753 34.1206H80.8667C76.2558 34.1206 72.4971 37.8735 72.4971 42.4903V52.4124H76.787V42.4903C76.787 40.2373 78.6138 38.4105 80.8667 38.4105H81.2753C83.5282 38.4105 85.355 40.2373 85.355 42.4903V52.4124H89.6449V42.4903C89.6449 37.8735 85.892 34.1206 81.2753 34.1206Z" fill="#061D23"/>
<path d="M74.3588 16.5934C74.3588 13.2257 75.7771 11.3813 78.0009 11.3813C80.2246 11.3813 81.1818 12.6829 81.1818 15.216V25.7977H85.9386V14.9533C85.9386 9.96887 83.5981 7.35992 79.6526 7.35992C77.0086 7.35992 75.281 8.66731 74.3588 10.9202V0H69.7188V25.8035H74.3588V16.5992V16.5934Z" fill="#061D23"/>
<path d="M114.66 16.7043C114.66 11.1771 110.936 7.31909 105.467 7.31909C103.6 7.31909 101.93 7.76851 100.518 8.60314V7.31909H96.082V30.251H100.518V24.788C100.565 24.8113 100.605 24.8405 100.646 24.858C101.994 25.6926 103.605 26.0778 105.339 26.0778C110.866 26.0778 114.66 22.2257 114.66 16.6926M100.909 16.6926V16.5642C100.909 13.1615 102.642 11.1654 105.473 11.1654C108.304 11.1654 109.845 13.1557 109.845 16.5642V16.6926C109.845 20.1654 108.175 22.2199 105.345 22.2199C102.514 22.2199 100.915 20.1654 100.915 16.6926H100.909Z" fill="#061D23"/>
<path d="M93.4266 7.28394H88.6289V25.7976H93.4266V7.28394Z" fill="#061D23"/>
<path d="M93.5022 0H88.5586V4.64591H93.5022V0Z" fill="#061D23"/>
<path d="M60.4673 22.6168C58.6346 22.6168 56.9887 21.7705 56.0199 20.3522L52.3545 22.5001C54.0004 24.7647 56.7319 26.3347 60.3623 26.3347C64.5121 26.3347 67.5821 23.7666 67.5821 20.3581C67.5821 16.681 64.1035 15.4554 60.9226 14.8367C57.8584 14.2297 56.8428 14.0312 56.8428 12.8056C56.8428 11.7316 57.8934 11.0021 59.5393 11.0021C61.2961 11.0021 62.7903 11.7666 63.765 13.2608L67.4304 11.2647C65.7086 8.89505 63.0179 7.27832 59.4985 7.27832C55.5354 7.27832 52.4654 9.84641 52.4654 13.1441C52.4654 16.7452 55.5296 17.9651 58.5996 18.6246C61.1794 19.2024 63.1288 19.4359 63.1288 20.6966C63.1288 21.8873 62.1191 22.6168 60.4732 22.6168" fill="#061D23"/>
<path d="M43.7632 18.4728L43.2554 18.1809L43.4772 18.0525L43.7632 17.8891C44.983 17.1887 45.7067 15.9397 45.7067 14.5389C45.7067 13.1381 44.983 11.8833 43.7632 11.1887L25.2554 0.525292C24.6484 0.175097 23.9772 0 23.3118 0C22.6406 0 21.9752 0.175097 21.3624 0.525292C20.1484 1.22568 19.4188 2.47471 19.4188 3.87549V4.45331L19.2028 4.33074L18.9168 4.16732C18.3098 3.81712 17.6386 3.64202 16.9733 3.64202C16.3021 3.64202 15.6367 3.81712 15.0239 4.16732C13.804 4.8677 13.0803 6.11673 13.0803 7.51751V8.09533L12.8643 7.97276L12.5783 7.80934C11.9713 7.45914 11.3001 7.28405 10.6347 7.28405C9.96354 7.28405 9.29817 7.45914 8.68533 7.80934C7.47132 8.50973 6.74175 9.75875 6.74175 11.1595V11.7374L6.5258 11.6148L6.23981 11.4514C5.62697 11.1012 4.9616 10.9261 4.29039 10.9261C3.62502 10.9261 2.95381 11.1012 2.34097 11.4514C1.10362 12.1459 0.379883 13.4008 0.379883 14.8016V36.0992C0.379883 37.5 1.10945 38.7549 2.32346 39.4494C2.93047 39.7996 3.60167 39.9747 4.27288 39.9747C4.94409 39.9747 5.60946 39.7996 6.2223 39.4494L6.72424 39.1634V39.7412C6.72424 41.142 7.44798 42.3969 8.66782 43.0914C9.27483 43.4416 9.94603 43.6167 10.6172 43.6167C11.2884 43.6167 11.9538 43.4416 12.5667 43.0914L13.0686 42.8054V43.3833C13.0686 44.784 13.7923 46.0389 15.0122 46.7335C15.6192 47.0837 16.2904 47.2588 16.9616 47.2588C17.6328 47.2588 18.2982 47.0837 18.911 46.7335L19.413 46.4475V47.0253C19.413 48.4261 20.1367 49.6809 21.3565 50.3755C21.9635 50.7257 22.6347 50.9008 23.306 50.9008C23.9772 50.9008 24.6425 50.7257 25.2554 50.3755L43.7573 39.7412C44.9772 39.0409 45.7009 37.7918 45.7009 36.391C45.7009 34.9903 44.9772 33.7354 43.7573 33.0409L43.2495 32.749L43.4713 32.6206L43.7573 32.4572C44.9772 31.7568 45.7009 30.5078 45.7009 29.107C45.7009 27.7062 44.9772 26.4514 43.7573 25.7568L43.2495 25.465L43.4713 25.3366L43.7573 25.1732C44.9772 24.4728 45.7009 23.2237 45.7009 21.823H45.7067C45.7067 20.4222 44.983 19.1673 43.7632 18.4728ZM6.73591 34.891L3.42074 36.7938L4.12696 36.0875V14.7198L4.197 14.679L4.30206 14.6148L6.73591 16.0214V34.891ZM16.7923 7.51751V7.42412L16.874 7.38327L16.9791 7.33074L35.8079 18.1809L33.2165 19.6751L16.7923 10.2315V7.51751ZM13.0803 38.5272L10.7165 39.8813L10.6406 39.928L10.5647 39.8755L10.4655 39.8113V18.1517L13.0803 19.6576V38.5331V38.5272ZM19.4188 42.1693L16.839 43.6576V43.4767L16.804 43.4533V21.7938L19.4188 23.2996V42.1751V42.1693ZM10.4538 13.8619V11.1537H10.5939L10.518 11.0311L10.6289 10.9553L29.4927 21.7938L26.8779 23.2996L10.4538 13.8619ZM23.1367 29.7315L39.5316 20.3113L41.8896 21.6712L41.9655 21.7121V21.9222L23.1367 32.7432V29.7315ZM41.9713 36.356V36.4844L23.3176 47.2062L23.2418 47.1537L23.1425 47.0895V44.2938L39.5375 34.8735L41.9713 36.2685V36.3502V36.356ZM41.9713 29.072V29.2004L23.1425 40.0214V37.0097L39.5375 27.5895L41.9713 28.9844V29.0661V29.072ZM39.5316 16.0331L28.8098 9.86965L28.8215 9.8463L23.1309 6.57782V3.86965H23.2709L23.1951 3.74708L23.306 3.67121L28.804 6.82879L28.7923 6.85214L42.1114 14.5097L39.5375 16.0331H39.5316Z" fill="#36BDB0"/>
</svg>
